<svg xmlns="http://www.w3.org/2000/svg" xmlns:xlink="http://www.w3.org/1999/xlink" width="500" height="600" viewBox="0 0 500 600">
  <!-- Background with gradient -->
  <rect width="500" height="600" fill="#121212" />
  
  <!-- Stylized portrait based on the uploaded photo -->
  <g transform="translate(50, 20) scale(0.8)">
    <!-- Face shape -->
    <ellipse cx="250" cy="220" rx="150" ry="170" fill="#2a2a2a" />
    
    <!-- Hair -->
    <path d="M250,80 C350,80 380,150 380,200 C380,250 350,280 330,290 C310,300 290,310 250,310 C210,310 190,300 170,290 C150,280 120,250 120,200 C120,150 150,80 250,80 Z" fill="#111" />
    
    <!-- Glasses -->
    <path d="M180,200 C190,190 210,190 220,200 C230,210 230,230 220,240 C210,250 190,250 180,240 C170,230 170,210 180,200 Z" fill="none" stroke="#4ca5ff" stroke-width="3" />
    <path d="M280,200 C290,190 310,190 320,200 C330,210 330,230 320,240 C310,250 290,250 280,240 C270,230 270,210 280,200 Z" fill="none" stroke="#4ca5ff" stroke-width="3" />
    <line x1="220" y1="220" x2="280" y2="220" stroke="#4ca5ff" stroke-width="3" />
    
    <!-- Eyes -->
    <ellipse cx="200" cy="220" rx="10" ry="8" fill="#333" />
    <ellipse cx="300" cy="220" rx="10" ry="8" fill="#333" />
    
    <!-- Smile -->
    <path d="M220,260 C240,280 260,280 280,260" fill="none" stroke="#444" stroke-width="3" />
    
    <!-- Neck -->
    <path d="M220,340 L280,340 L290,380 L210,380 Z" fill="#222" />
    
    <!-- T-shirt -->
    <path d="M180,380 L320,380 L340,500 L160,500 Z" fill="#111" />
    
    <!-- Arms crossed -->
    <path d="M160,420 C180,400 220,400 250,420 C280,400 320,400 340,420" fill="none" stroke="#222" stroke-width="15" />
    <path d="M160,440 C180,420 220,420 250,440 C280,420 320,420 340,440" fill="none" stroke="#222" stroke-width="10" />
    
    <!-- Wristband/watch -->
    <rect x="310" y="430" width="20" height="10" rx="5" ry="5" fill="#333" stroke="#4ca5ff" stroke-width="1" />
    
    <!-- Facial hair suggestion -->
    <path d="M220,280 C240,290 260,290 280,280" fill="none" stroke="#222" stroke-width="2" />
  </g>
  
  <!-- White backdrop effect -->
  <rect x="0" y="0" width="500" height="600" fill="url(#backdropGrad)" opacity="0.05" />
  
  <!-- Subtle gradient overlay -->
  <rect width="500" height="600" fill="url(#grad)" opacity="0.15" />
  
  <!-- Definitions -->
  <defs>
    <linearGradient id="grad" x1="0%" y1="0%" x2="100%" y2="100%">
      <stop offset="0%" style="stop-color:#4ca5ff;stop-opacity:0.7" />
      <stop offset="100%" style="stop-color:#b673f8;stop-opacity:0.7" />
    </linearGradient>
    <linearGradient id="backdropGrad" x1="50%" y1="0%" x2="50%" y2="100%">
      <stop offset="0%" style="stop-color:#ffffff;stop-opacity:0.1" />
      <stop offset="100%" style="stop-color:#ffffff;stop-opacity:0" />
    </linearGradient>
  </defs>
</svg>